<svg xmlns="http://www.w3.org/2000/svg" viewBox="0 0 64 64" aria-hidden="true">
  <path d="M18 38c0-8 7-14 16-14s16 6 16 14c0 7-6 12-16 12S18 45 18 38Z" fill="#DFF2EE" stroke="#241C35" stroke-width="3" />
  <path d="M24 38c3-4 7-6 10-6s7 2 10 6" fill="none" stroke="#241C35" stroke-width="3" stroke-linecap="round" />
  <path d="M32 9v14M25 13l7 7 7-7M13 18l11 8M14 28l10-2-2-10M51 18l-11 8M50 28l-10-2 2-10" fill="none" stroke="#FF5C7A" stroke-width="2.5" stroke-linecap="round" stroke-linejoin="round" />
</svg>
