<svg xmlns="http://www.w3.org/2000/svg" viewBox="0 0 160 160" role="img" aria-labelledby="title desc">
  <title id="title">BlinkaMart cart bag</title>
  <desc id="desc">A yellow shopping bag with a lightning mark.</desc>
  <defs>
    <linearGradient id="bagFill" x1="36" x2="124" y1="34" y2="146" gradientUnits="userSpaceOnUse">
      <stop stop-color="#FFE178" />
      <stop offset="1" stop-color="#FFD166" />
    </linearGradient>
    <filter id="softShadow" x="-20%" y="-20%" width="140%" height="150%">
      <feDropShadow dx="0" dy="8" stdDeviation="7" flood-color="#241C35" flood-opacity=".18" />
    </filter>
  </defs>
  <rect width="160" height="160" rx="32" fill="#FFF8EA" />
  <g filter="url(#softShadow)">
    <path d="M46 60h68l10 72c1 8-5 15-13 15H49c-8 0-14-7-13-15l10-72Z" fill="url(#bagFill)" />
    <path d="M58 61c2-20 11-33 23-33 13 0 22 13 24 33" fill="none" stroke="#241C35" stroke-width="8" stroke-linecap="round" />
    <path d="M70 71h36" stroke="#241C35" stroke-width="7" stroke-linecap="round" opacity=".16" />
    <path d="M84 75 61 111h21l-8 27 27-41H80l4-22Z" fill="#241C35" />
  </g>
</svg>
