<svg width="1024" height="1024" viewBox="0 0 1024 1024" fill="none" xmlns="http://www.w3.org/2000/svg" role="img" aria-labelledby="title desc">
  <title id="title">DopeCart Logo V2</title>
  <desc id="desc">A distinctive DopeCart app icon with a neon parody cart, cancelled check spark, and full dark square background.</desc>
  <defs>
    <radialGradient id="bgGlow" cx="0" cy="0" r="1" gradientUnits="userSpaceOnUse" gradientTransform="translate(378 250) rotate(61.8) scale(764 710)">
      <stop offset="0" stop-color="#172532"/>
      <stop offset="0.48" stop-color="#090F15"/>
      <stop offset="1" stop-color="#06100E"/>
    </radialGradient>
    <linearGradient id="lime" x1="207" y1="276" x2="742" y2="782" gradientUnits="userSpaceOnUse">
      <stop offset="0" stop-color="#E3F35B"/>
      <stop offset="0.48" stop-color="#B7E247"/>
      <stop offset="1" stop-color="#55C86D"/>
    </linearGradient>
    <linearGradient id="coral" x1="423" y1="314" x2="807" y2="577" gradientUnits="userSpaceOnUse">
      <stop offset="0" stop-color="#FF946F"/>
      <stop offset="1" stop-color="#E35751"/>
    </linearGradient>
    <linearGradient id="spark" x1="692" y1="206" x2="822" y2="347" gradientUnits="userSpaceOnUse">
      <stop offset="0" stop-color="#6CFAFF"/>
      <stop offset="1" stop-color="#FF5478"/>
    </linearGradient>
    <filter id="markShadow" x="116" y="174" width="775" height="707" filterUnits="userSpaceOnUse" color-interpolation-filters="sRGB">
      <feFlood flood-opacity="0" result="BackgroundImageFix"/>
      <feColorMatrix in="SourceAlpha" type="matrix" values="0 0 0 0 0 0 0 0 0 0 0 0 0 0 0 0 0 0 127 0" result="hardAlpha"/>
      <feOffset dy="20"/>
      <feGaussianBlur stdDeviation="24"/>
      <feColorMatrix type="matrix" values="0 0 0 0 0.02 0 0 0 0 0.04 0 0 0 0 0.04 0 0 0 0.48 0"/>
      <feBlend mode="normal" in2="BackgroundImageFix" result="shadow"/>
      <feBlend mode="normal" in="SourceGraphic" in2="shadow" result="shape"/>
    </filter>
  </defs>

  <rect width="1024" height="1024" fill="url(#bgGlow)"/>
  <path d="M123 182C164 127 228 96 302 96H722C838 96 928 186 928 302V724C928 797 899 860 847 902" stroke="white" stroke-opacity="0.05" stroke-width="32" stroke-linecap="round"/>
  <path d="M103 762C119 861 198 928 304 928H729" stroke="#C6E848" stroke-opacity="0.07" stroke-width="32" stroke-linecap="round"/>

  <g filter="url(#markShadow)" stroke-linecap="round" stroke-linejoin="round">
    <path d="M183 344H254C286 344 312 365 321 396L358 520" stroke="url(#lime)" stroke-width="56"/>
    <path d="M182 469H295" stroke="url(#lime)" stroke-width="45"/>
    <path d="M155 560H309" stroke="url(#lime)" stroke-width="45"/>
    <circle cx="134" cy="469" r="24" fill="url(#lime)"/>

    <path d="M425 344H780L720 573H344" stroke="url(#coral)" stroke-width="56"/>
    <path d="M349 573L388 684H696" stroke="url(#lime)" stroke-width="54"/>
    <path d="M390 684H697" stroke="url(#lime)" stroke-width="54"/>

    <circle cx="365" cy="716" r="67" fill="url(#lime)"/>
    <circle cx="665" cy="716" r="67" fill="url(#lime)"/>
    <circle cx="365" cy="716" r="22" fill="#071015"/>
    <circle cx="665" cy="716" r="22" fill="#071015"/>

  </g>

  <g>
    <path d="M747 226L766 280L823 266L786 312L811 364L759 339L720 381L727 323L677 294L735 282L747 226Z" fill="url(#spark)"/>
    <path d="M728 300L754 329L812 263" stroke="#F8FFE7" stroke-width="25" stroke-linecap="round" stroke-linejoin="round"/>
  </g>
</svg>
